<svg width="45" height="45" viewBox="0 0 45 45" fill="none" xmlns="http://www.w3.org/2000/svg">
<rect x="1" y="1" width="43" height="43" rx="21.5" fill="#F2EDE6"/>
<rect x="1" y="1" width="43" height="43" rx="21.5" stroke="#BA794A" stroke-width="2"/>
<g filter="url(#filter0_d_1547_228)">
<path d="M33.2143 19.8214H25.1786V11.7857C25.1786 10.7997 24.3789 10 23.3929 10H21.6071C20.6211 10 19.8214 10.7997 19.8214 11.7857V19.8214H11.7857C10.7997 19.8214 10 20.6211 10 21.6071V23.3929C10 24.3789 10.7997 25.1786 11.7857 25.1786H19.8214V33.2143C19.8214 34.2003 20.6211 35 21.6071 35H23.3929C24.3789 35 25.1786 34.2003 25.1786 33.2143V25.1786H33.2143C34.2003 25.1786 35 24.3789 35 23.3929V21.6071C35 20.6211 34.2003 19.8214 33.2143 19.8214Z" fill="#505E7C"/>
</g>
<defs>
<filter id="filter0_d_1547_228" x="10" y="10" width="27" height="27" filterUnits="userSpaceOnUse" color-interpolation-filters="sRGB">
<feFlood flood-opacity="0" result="BackgroundImageFix"/>
<feColorMatrix in="SourceAlpha" type="matrix" values="0 0 0 0 0 0 0 0 0 0 0 0 0 0 0 0 0 0 127 0" result="hardAlpha"/>
<feOffset dx="1" dy="1"/>
<feGaussianBlur stdDeviation="0.5"/>
<feComposite in2="hardAlpha" operator="out"/>
<feColorMatrix type="matrix" values="0 0 0 0 0 0 0 0 0 0 0 0 0 0 0 0 0 0 0.25 0"/>
<feBlend mode="normal" in2="BackgroundImageFix" result="effect1_dropShadow_1547_228"/>
<feBlend mode="normal" in="SourceGraphic" in2="effect1_dropShadow_1547_228" result="shape"/>
</filter>
</defs>
</svg>
